<svg width="59" height="60" viewBox="0 0 59 60" fill="none" xmlns="http://www.w3.org/2000/svg">
<g clip-path="url(#clip0_1157_8149)">
<path d="M40.2479 0.702393H0.399902V40.7458L18.9566 59.3025H59V19.4545L40.2479 0.702393Z" fill="white"/>
<path d="M39.7596 1.92641L57.7759 19.9428V58.0848H19.4449L1.624 40.2575V1.92641H39.7596ZM40.2479 0.702393H0.399902V40.7458L18.9566 59.3025H59V19.4545L40.2479 0.702393Z" fill="#FF9900"/>
<path d="M9.91924 33.7137V35.8624H8.70166V30.0024H10.948C11.4806 29.9729 12.0046 30.1475 12.413 30.4907C12.6982 30.7579 12.8925 31.1078 12.9685 31.4911C13.0445 31.8744 12.9983 32.2719 12.8366 32.6277C12.6749 32.9835 12.4057 33.2797 12.0669 33.4745C11.7281 33.6693 11.3368 33.7529 10.948 33.7137H9.91924ZM9.91924 32.7827H10.8178C10.9377 32.7986 11.0597 32.7851 11.1732 32.7431C11.2867 32.7011 11.3882 32.6319 11.4689 32.5417C11.612 32.3424 11.689 32.1034 11.689 31.8581C11.689 31.6128 11.612 31.3737 11.4689 31.1744C11.2875 31.0192 11.0566 30.9337 10.8178 30.9335H9.93227L9.91924 32.7827ZM18.0777 35.8624L17.687 34.5602H15.6881L15.2974 35.8624H13.9952L16.0462 30.0024H17.4656L19.4646 35.8624H18.0777ZM15.929 33.6161H17.394L16.6647 31.1744L15.929 33.6161ZM21.203 35.8624V30.0024H23.4494C23.9823 29.9709 24.5069 30.1457 24.9144 30.4907C25.2582 30.8372 25.4523 31.3048 25.4548 31.793C25.4536 32.1268 25.349 32.4521 25.1553 32.724C24.9569 33.0062 24.6873 33.2309 24.3739 33.3751L25.8389 35.908H24.5367L23.2344 33.6161H22.4011V35.8624H21.203ZM22.4206 32.6851H23.3061C23.4062 32.6998 23.5082 32.6946 23.6063 32.6698C23.7043 32.645 23.7965 32.6011 23.8775 32.5406C23.9586 32.4801 24.027 32.4042 24.0786 32.3172C24.1303 32.2303 24.1643 32.1341 24.1786 32.034V31.793C24.2085 31.5901 24.1567 31.3837 24.0347 31.219C23.9126 31.0542 23.7302 30.9445 23.5275 30.9139H22.4531V32.7175L22.4206 32.6851ZM28.821 35.8624V31.0247H27.0175V30.0024H31.8487V31.0247H30.0386V35.8624H28.821ZM34.922 31.806V35.8624H33.8021V30.0024H35.1694L37.5589 34.1045V30.0024H38.6854V35.8624H37.318L34.922 31.806ZM40.9317 35.8624V30.0024H44.7928V30.9791H42.1884V32.3465H44.2915V33.3231H42.1884V34.8858H44.7928V35.8624H40.9317ZM47.0326 35.8624V30.0024H49.2789C49.8119 29.9709 50.3365 30.1457 50.7439 30.4907C51.0878 30.8372 51.2819 31.3048 51.2844 31.793C51.2856 32.1262 51.1831 32.4515 50.9914 32.724C50.7914 33.0048 50.5223 33.2291 50.2101 33.3751L51.6751 35.908H50.3728L49.0706 33.6161H48.2437V35.8624H47.0326ZM48.2567 32.6851H49.1357C49.3386 32.7149 49.545 32.6631 49.7097 32.5411C49.8745 32.419 49.9841 32.2367 50.0147 32.034V31.793C50.0428 31.5904 49.9904 31.3849 49.8687 31.2205C49.747 31.0562 49.5656 30.9461 49.3636 30.9139H48.2372L48.2567 32.6851Z" fill="#242E3D"/>
<path d="M13.4223 14.1285C13.4048 14.3296 13.4408 14.5317 13.5265 14.7144C13.5721 14.8642 13.6697 15.0595 13.7218 15.2028C13.739 15.2234 13.7519 15.2473 13.7597 15.273C13.7676 15.2988 13.7702 15.3258 13.7674 15.3525C13.7674 15.4502 13.7219 15.5023 13.6177 15.5479L13.1814 15.8409H13.0382C12.9993 15.8411 12.9609 15.8325 12.9259 15.8156C12.8909 15.7986 12.8602 15.7739 12.8363 15.7433C12.7428 15.6573 12.6617 15.5585 12.5954 15.4501C12.5212 15.3246 12.456 15.1942 12.4001 15.0596C12.1647 15.3508 11.8671 15.5856 11.5291 15.7468C11.1911 15.9079 10.8212 15.9911 10.4468 15.9906C10.2074 16.0078 9.96701 15.973 9.74226 15.8887C9.51751 15.8044 9.31366 15.6726 9.14456 15.5023C8.97792 15.3305 8.84851 15.1263 8.76448 14.9022C8.68045 14.6781 8.64361 14.439 8.65623 14.2C8.64946 13.9449 8.69771 13.6914 8.7977 13.4566C8.8977 13.2218 9.04702 13.0111 9.23565 12.8392C9.70025 12.4872 10.2676 12.2974 10.8505 12.2988C11.0688 12.2908 11.2873 12.3082 11.5016 12.3508L12.2373 12.4942V12.0059C12.2637 11.8158 12.2507 11.6224 12.1992 11.4376C12.1477 11.2528 12.0587 11.0804 11.9378 10.9314C11.7877 10.8127 11.6152 10.7255 11.4305 10.6752C11.2459 10.6248 11.053 10.6124 10.8634 10.6385C10.6179 10.649 10.3738 10.6816 10.1342 10.7361C9.88448 10.7947 9.64045 10.8754 9.40494 10.9771C9.30728 11.0292 9.25518 11.0291 9.15752 11.0812H9.05991C8.96225 11.0812 8.91009 11.0291 8.91009 10.8858V10.5409C8.90265 10.4551 8.92082 10.3689 8.96223 10.2934C9.01781 10.2338 9.08402 10.1853 9.15752 10.1501C9.4129 10.0027 9.6932 9.90341 9.98444 9.85717C10.319 9.76178 10.6653 9.71358 11.0133 9.71395C11.6317 9.6628 12.2459 9.85416 12.7257 10.2477C12.9186 10.4672 13.0653 10.7233 13.157 11.0008C13.2488 11.2782 13.2836 11.5713 13.2596 11.8625L13.4223 14.1285ZM10.7398 15.1052C10.9591 15.0948 11.1771 15.0642 11.3909 15.0139C11.6341 14.9091 11.8551 14.7588 12.042 14.5712C12.1607 14.448 12.2439 14.2951 12.2829 14.1285C12.3257 13.9385 12.3432 13.7435 12.3349 13.5489V13.2494C11.9323 13.1635 11.5225 13.1155 11.1109 13.1062C10.7658 13.064 10.4175 13.1522 10.1342 13.3536C9.94296 13.5444 9.82763 13.7983 9.80966 14.0678C9.79169 14.3373 9.87238 14.6041 10.0366 14.8186C10.1079 14.9302 10.2115 15.0174 10.3336 15.0686C10.4558 15.1198 10.5906 15.1326 10.7202 15.1052H10.7398ZM16.0594 15.8409C15.9682 15.8409 15.864 15.8408 15.8185 15.7952C15.7585 15.7205 15.7102 15.6371 15.6752 15.5479L14.106 10.4236C14.0735 10.3452 14.0579 10.261 14.0604 10.1762C14.0604 10.0785 14.106 10.0265 14.1581 10.0265H14.8092C14.9069 10.0265 15.0045 10.0264 15.0501 10.0785C15.1124 10.1504 15.1629 10.2318 15.1999 10.3194L16.3198 14.6688L17.3486 10.3194C17.3485 10.2701 17.3617 10.2216 17.3869 10.1792C17.4122 10.1368 17.4484 10.1019 17.4918 10.0785C17.5687 10.041 17.6537 10.0232 17.7392 10.0265H18.2731C18.3592 10.0126 18.4474 10.031 18.5205 10.0785C18.5805 10.1508 18.6289 10.2322 18.6638 10.3194L19.6925 14.7666L20.819 10.3194C20.8182 10.27 20.8311 10.2211 20.8564 10.1786C20.8817 10.1361 20.9183 10.1014 20.9622 10.0785C21.0354 10.0372 21.1194 10.0191 21.2031 10.0265H21.8542C21.9519 10.0265 22.004 10.0785 22.004 10.1306V10.2738C22.004 10.3194 21.9519 10.3715 21.9519 10.4236L20.3892 15.5023C20.3902 15.5526 20.3766 15.6021 20.35 15.6449C20.3234 15.6876 20.285 15.7219 20.2395 15.7433C20.1939 15.8409 20.0962 15.8409 19.9986 15.8409H19.4125C19.3149 15.8409 19.2172 15.8408 19.1716 15.7952C19.126 15.7497 19.074 15.6456 19.0219 15.5479L17.9932 11.2961L16.9709 15.5479C16.9723 15.5992 16.959 15.6498 16.9324 15.6937C16.9058 15.7375 16.8672 15.7727 16.8211 15.7952C16.7652 15.8315 16.6986 15.8476 16.6324 15.8409H16.0594ZM24.5238 16.0362C24.1811 16.0295 23.8393 15.9968 23.5015 15.9385C23.2344 15.8789 22.973 15.7962 22.7202 15.6911C22.6433 15.6627 22.5778 15.6096 22.5342 15.5401C22.4907 15.4706 22.4714 15.3886 22.4793 15.3069V14.9618C22.4793 14.8185 22.5249 14.7666 22.6226 14.7666H22.7202C22.7723 14.7666 22.8179 14.8186 22.8635 14.8186C23.1015 14.9193 23.3477 15 23.5992 15.0596C23.8563 15.1149 24.1177 15.1475 24.3805 15.1572C24.7235 15.1745 25.0638 15.0884 25.3572 14.9098C25.4615 14.8357 25.5471 14.7382 25.607 14.6251C25.6669 14.5121 25.6995 14.3866 25.7023 14.2587C25.7119 14.1745 25.6982 14.0892 25.6626 14.0123C25.627 13.9354 25.5709 13.8696 25.5005 13.8223C25.3097 13.6634 25.088 13.546 24.8494 13.4774L23.8727 13.1843C23.4596 13.079 23.0876 12.8522 22.8049 12.5332C22.5944 12.2496 22.4741 11.9093 22.4598 11.5565C22.4567 11.298 22.5243 11.0437 22.6551 10.8208C22.9231 10.3938 23.3412 10.0825 23.8271 9.94826C24.0939 9.86256 24.3743 9.82729 24.654 9.84414C24.8035 9.83592 24.9533 9.8536 25.0968 9.89628C25.2464 9.90622 25.3935 9.9391 25.533 9.99388C25.6828 10.0395 25.7804 10.0394 25.9302 10.0915C26.0799 10.1436 26.119 10.1437 26.2232 10.1892C26.2949 10.2273 26.3607 10.2755 26.4185 10.3325C26.4597 10.408 26.4757 10.4946 26.4641 10.5798V10.8729C26.4641 11.0162 26.4186 11.0682 26.3144 11.0682C26.2253 11.0641 26.1403 11.0297 26.0735 10.9706C25.6649 10.7873 25.2183 10.7046 24.7713 10.7296C24.4667 10.7223 24.165 10.7894 23.8922 10.9249C23.7872 10.9767 23.7018 11.0612 23.649 11.1658C23.5961 11.2703 23.5787 11.3892 23.5992 11.5045C23.593 11.5954 23.6073 11.6864 23.6411 11.7709C23.6749 11.8555 23.7274 11.9314 23.7946 11.9928C23.995 12.1822 24.2503 12.303 24.5238 12.338L25.4549 12.6309C25.8494 12.749 26.2034 12.9744 26.4772 13.282C26.677 13.5505 26.7802 13.8786 26.7701 14.2131C26.776 14.4863 26.7085 14.7561 26.5748 14.9944C26.4661 15.2291 26.2977 15.4312 26.0864 15.5805C25.8595 15.7388 25.6147 15.8698 25.3572 15.971C25.084 16.0351 24.8044 16.0679 24.5238 16.0688V16.0362Z" fill="#242E3D"/>
<path d="M25.7935 19.2136C23.4132 20.8194 20.604 21.6703 17.7327 21.6552C14.108 21.663 10.6103 20.3214 7.92047 17.8918C7.72514 17.6964 7.92048 17.4556 8.1679 17.5988C11.1449 19.3373 14.5327 20.2478 17.9801 20.2358C20.5613 20.226 23.1158 19.7128 25.5005 18.7252C25.8391 18.5755 26.1516 18.9661 25.7935 19.2136ZM26.1321 20.6786C26.0409 20.8739 26.2362 20.965 26.4315 20.8218C27.597 19.8451 27.8965 17.7942 27.6491 17.5012C27.4017 17.2082 25.3507 16.9673 24.1331 17.8398C23.9378 17.9896 23.9899 18.1849 24.1787 18.1328C24.8298 18.0351 26.4316 17.8397 26.7246 18.2369C27.0176 18.6341 26.3795 20.0405 26.1321 20.6786Z" fill="#FF9900"/>
</g>
<defs>
<clipPath id="clip0_1157_8149">
<rect width="58.6001" height="58.6001" fill="white" transform="translate(0.399902 0.702393)"/>
</clipPath>
</defs>
</svg>
